<svg width="28" height="25" viewBox="0 0 28 25" fill="none" xmlns="http://www.w3.org/2000/svg">
<path d="M4.51388 19.6268L20.6919 3.44877C20.708 3.43261 20.7243 3.41636 20.7406 3.40004C21.0305 3.10985 21.3441 2.79606 21.6444 2.5669C21.9963 2.29843 22.4998 2.00943 23.1667 2.00943C23.8337 2.00943 24.3372 2.29843 24.6891 2.5669C24.9894 2.79607 25.303 3.10986 25.5929 3.40006C25.6092 3.41638 25.6255 3.43262 25.6416 3.44877L28.8132 6.62034C28.8294 6.6365 28.8456 6.65274 28.8619 6.66905C29.1521 6.95901 29.4659 7.27255 29.6951 7.57291C29.9635 7.92478 30.2525 8.42827 30.2525 9.09521C30.2525 9.76216 29.9635 10.2657 29.6951 10.6175C29.4659 10.9179 29.1521 11.2314 28.862 11.5214C28.8456 11.5377 28.8294 11.5539 28.8132 11.5701L12.6191 27.7642C12.6066 27.7767 12.5931 27.7903 12.5786 27.8049C12.4336 27.9516 12.1932 28.1945 11.8873 28.3677C11.5813 28.541 11.2493 28.6221 11.0489 28.6711C11.029 28.6759 11.0103 28.6805 10.9931 28.6848L4.339 30.3483C4.32777 30.3511 4.31556 30.3542 4.30249 30.3575C4.16238 30.3929 3.92218 30.4535 3.70257 30.475C3.44391 30.5003 2.80105 30.5172 2.27291 29.9891L2.2729 29.9891C1.74476 29.4609 1.76165 28.8181 1.78696 28.5594C1.80844 28.3398 1.86908 28.0996 1.90445 27.9595C1.90775 27.9464 1.91084 27.9342 1.91365 27.923L3.57718 21.2688C3.58148 21.2516 3.58603 21.233 3.59091 21.213C3.63987 21.0126 3.72099 20.6807 3.89421 20.3747L4.51388 19.6268ZM4.51388 19.6268L4.51386 19.6268L4.4978 19.6428L4.49779 19.6429C4.48526 19.6554 4.47161 19.6689 4.45701 19.6833C4.31038 19.8284 4.06744 20.0688 3.89421 20.3747L4.51388 19.6268Z" stroke="white" stroke-width="3"/>
<path d="M18.1667 6.09521L24.1667 2.09521L30.1667 8.09521L26.1667 14.0952L18.1667 6.09521Z" fill="white"/>
</svg>
