<svg width="32" height="32" viewBox="0 0 32 32" fill="none" xmlns="http://www.w3.org/2000/svg">
<path d="M7.49728 0.555542C3.71042 0.555542 0.640137 3.62583 0.640137 7.41268V22.8413V24.5555C0.640137 28.3424 3.71042 31.4127 7.49728 31.4127H24.6401C28.427 31.4127 31.4973 28.3424 31.4973 24.5555V22.8413V7.41268C31.4973 3.62583 28.427 0.555542 24.6401 0.555542H7.49728ZM7.49728 3.98411H24.6401C26.5344 3.98411 28.0687 5.5184 28.0687 7.41268L28.0756 18.0344C26.7418 16.7967 25.3824 16.0218 23.8893 15.9841C23.8362 15.9824 23.8379 15.9841 23.783 15.9841C21.8339 15.9841 19.667 17.4824 18.2116 19.3595C17.8396 18.5195 17.4642 17.6898 17.0322 16.8944C15.0093 13.159 12.7996 10.8464 10.0687 10.8413C7.74757 10.8361 5.75557 12.7338 4.055 15.3327L4.06871 7.41268C4.06871 5.5184 5.60299 3.98411 7.49728 3.98411ZM22.9259 7.41268C21.9796 7.41268 21.2116 8.18069 21.2116 9.12697C21.2116 10.0733 21.9796 10.8413 22.9259 10.8413C23.8721 10.8413 24.6401 10.0733 24.6401 9.12697C24.6401 8.18069 23.8721 7.41268 22.9259 7.41268ZM10.0687 14.2698C11.0664 14.2715 12.5819 15.8247 14.0322 18.5024C14.6082 19.5618 15.1241 20.7292 15.587 21.8778C15.8647 22.5635 16.079 23.0881 16.175 23.3761C16.643 24.7767 18.5424 24.9755 19.283 23.6984C19.3567 23.5715 19.4904 23.3281 19.7116 23.0024C20.0819 22.4538 20.5036 21.8984 20.9441 21.3944C22.0447 20.1327 23.1059 19.4127 23.783 19.4127C24.467 19.4298 25.523 20.1481 26.6219 21.3944C27.0676 21.9001 27.479 22.4538 27.8544 23.0024C27.9727 23.1738 27.9899 23.2544 28.0687 23.3761V24.5555C28.0687 26.4498 26.5344 27.9841 24.6401 27.9841H7.49728C5.60299 27.9841 4.06871 26.4498 4.06871 24.5555V23.1087C4.17671 22.8036 4.32072 22.4418 4.55043 21.8778C5.01843 20.7292 5.52583 19.5635 6.10526 18.5024C7.56755 15.8195 9.07271 14.2681 10.0687 14.2698Z" fill="#17B8FF"/>
</svg>
