<svg width="28" height="25" viewBox="0 0 28 25" fill="none" xmlns="http://www.w3.org/2000/svg">
<path fill-rule="evenodd" clip-rule="evenodd" d="M9.98739 1.94666L25.0244 10.637C26.9434 11.7502 28.1245 13.8008 28.1245 16.0193C28.1245 18.2377 26.9434 20.2883 25.0244 21.4015L9.98739 30.0918C8.06161 31.2037 5.68886 31.2033 3.76344 30.0908C1.83802 28.9784 0.65263 26.923 0.654054 24.6993V7.33925C0.65263 5.11555 1.83802 3.06012 3.76344 1.94765C5.68886 0.835188 8.06161 0.834808 9.98739 1.94666ZM8.12073 26.8563L23.1578 18.1867C23.9315 17.745 24.4071 16.9205 24.4022 16.0296C24.4102 15.1325 23.9348 14.3004 23.1578 13.8518L8.12073 5.18221C7.74463 4.95615 7.31507 4.83444 6.87628 4.82962C5.49025 4.82962 4.36665 5.95322 4.36665 7.33925V24.6993C4.36665 25.3648 4.63106 26.0032 5.10171 26.4738C5.57235 26.9445 6.21069 27.2089 6.87628 27.2089C7.31507 27.2041 7.74463 27.0824 8.12073 26.8563Z" fill="white"/>
</svg>
