<svg width="28" height="25" viewBox="0 0 28 25" fill="none" xmlns="http://www.w3.org/2000/svg">
<path fill-rule="evenodd" clip-rule="evenodd" d="M5.6 1.9106C5.6 1.59234 5.4525 1.28712 5.18995 1.06207C4.9274 0.83703 4.5713 0.710602 4.2 0.710602C3.8287 0.710602 3.4726 0.83703 3.21005 1.06207C2.9475 1.28712 2.8 1.59234 2.8 1.9106V3.1106H1.4C1.0287 3.1106 0.672601 3.23703 0.41005 3.46207C0.1475 3.68712 0 3.99234 0 4.3106C0 4.62886 0.1475 4.93409 0.41005 5.15913C0.672601 5.38417 1.0287 5.5106 1.4 5.5106H2.8V6.7106C2.8 7.02886 2.9475 7.33409 3.21005 7.55913C3.4726 7.78417 3.8287 7.9106 4.2 7.9106C4.5713 7.9106 4.9274 7.78417 5.18995 7.55913C5.4525 7.33409 5.6 7.02886 5.6 6.7106V5.5106H7C7.3713 5.5106 7.7274 5.38417 7.98995 5.15913C8.2525 4.93409 8.4 4.62886 8.4 4.3106C8.4 3.99234 8.2525 3.68712 7.98995 3.46207C7.7274 3.23703 7.3713 3.1106 7 3.1106H5.6V1.9106ZM16.8 1.9106C16.8 1.59234 16.6525 1.28712 16.3899 1.06207C16.1274 0.83703 15.7713 0.710602 15.4 0.710602C15.0287 0.710602 14.6726 0.83703 14.4101 1.06207C14.1475 1.28712 14 1.59234 14 1.9106C14 3.6434 13.7214 6.0818 12.3732 8.0534C11.0936 9.9218 8.764 11.5106 4.2 11.5106C3.8287 11.5106 3.4726 11.637 3.21005 11.8621C2.9475 12.0871 2.8 12.3923 2.8 12.7106C2.8 13.0289 2.9475 13.3341 3.21005 13.5591C3.4726 13.7842 3.8287 13.9106 4.2 13.9106C6.0592 13.9106 8.5148 14.3942 10.4804 15.7946C12.3928 17.1542 14 19.4966 14 23.5106C14 23.8289 14.1475 24.1341 14.4101 24.3591C14.6726 24.5842 15.0287 24.7106 15.4 24.7106C15.7713 24.7106 16.1274 24.5842 16.3899 24.3591C16.6525 24.1341 16.8 23.8289 16.8 23.5106C16.8 21.7778 17.0786 19.3394 18.4268 17.3678C19.7064 15.4994 22.036 13.9106 26.6 13.9106C26.9713 13.9106 27.3274 13.7842 27.59 13.5591C27.8525 13.3341 28 13.0289 28 12.7106C28 12.3923 27.8525 12.0871 27.59 11.8621C27.3274 11.637 26.9713 11.5106 26.6 11.5106C24.7408 11.5106 22.2852 11.027 20.3196 9.6266C18.4072 8.267 16.8 5.9246 16.8 1.9106ZM14.7868 9.2678C15.0486 8.8862 15.2768 8.4938 15.477 8.0978C16.1978 9.39913 17.2396 10.5508 18.5304 11.4734C19.152 11.9162 19.8058 12.287 20.4736 12.5942C18.4506 13.4342 17.0072 14.699 16.0132 16.1534C15.7551 16.5308 15.5246 16.9216 15.323 17.3234C14.6021 16.0221 13.5603 14.8704 12.2696 13.9478C11.6671 13.5196 11.0161 13.1442 10.3264 12.827C12.3494 11.987 13.7914 10.7222 14.7868 9.2678Z" fill="#227EFF"/>
</svg>
